<?xml version="1.0" encoding="UTF-8"?>
<svg width="48px" height="44px" viewBox="0 0 48 44" version="1.1" xmlns="http://www.w3.org/2000/svg" xmlns:xlink="http://www.w3.org/1999/xlink">
    <!-- Generator: sketchtool 64 (101010) - https://sketch.com -->
    <title>3FA1BFAD-B2A6-4DFC-989D-0CDA638E0439@3x</title>
    <desc>Created with sketchtool.</desc>
    <g id="Icons" stroke="none" stroke-width="1" fill="none" fill-rule="evenodd">
        <g transform="translate(-492.000000, -103.000000)" id="icon/battery">
            <g transform="translate(492.000000, 101.000000)">
                <rect id="Rectangle" stroke="#979797" fill="#D8D8D8" opacity="0" x="0" y="0" width="48" height="48"></rect>
                <path d="M12.1036377,2 L12.1036377,8.51379397 L16.5838623,8.51379397 L16.6204834,3.25976563 L31.4326172,3.36303706 L31.3967286,8.51379397 L35.8963623,8.51379397 L35.8963623,2 L45.5921631,2 L45.5921631,8.51379397 L48,8.51379397 L48,17.326294 L46.125,17.326294 L46.125,37.1247558 L48,37.1247558 L48,45.9372558 L7.10542736e-15,45.9372558 L7.10542736e-15,37.1247558 L1.6875,37.1247558 L1.6875,17.326294 L7.10542736e-15,17.326294 L7.10542736e-15,8.51379397 L2.40783694,8.51379397 L2.40783694,2 L12.1036377,2 Z M45.1875,39.9372558 L2.8125,39.9372558 L2.8125,43.1247558 L45.1875,43.1247558 L45.1875,39.9372558 Z M43.3125,17.3903808 L4.5,17.3903808 L4.5,37.1247558 L43.3125,37.1247558 L43.3125,17.3903808 Z M16.0759277,22.298706 L16.0759277,25.8513183 L19.6285401,25.8513183 L19.6285401,28.6638183 L16.0759277,28.6638183 L16.0759277,32.2167969 L13.2634277,32.2167969 L13.2634277,28.6638183 L9.71044922,28.6638183 L9.71044922,25.8513183 L13.2634277,25.8513183 L13.2634277,22.298706 L16.0759277,22.298706 Z M38.289917,25.8513183 L38.289917,28.6638183 L28.3714599,28.6638183 L28.3714599,25.8513183 L38.289917,25.8513183 Z M45.1875,11.326294 L2.8125,11.326294 L2.8125,14.513794 L45.1875,14.513794 L45.1875,11.326294 Z M42.7796631,4.8125 L38.7088623,4.8125 L38.7088623,8.51379397 L42.7796631,8.51379397 L42.7796631,4.8125 Z M19.413208,6.09204106 L19.3963623,8.51379397 L28.5842286,8.51379397 L28.600708,6.15576172 L19.413208,6.09204106 Z M9.29113772,4.8125 L5.22033694,4.8125 L5.22033694,8.51379397 L9.29113772,8.51379397 L9.29113772,4.8125 Z" id="Combined-Shape" fill="#818894"></path>
            </g>
        </g>
    </g>
</svg>