<?xml version="1.0" encoding="UTF-8"?>
<svg width="48px" height="48px" viewBox="0 0 48 48" version="1.1" xmlns="http://www.w3.org/2000/svg" xmlns:xlink="http://www.w3.org/1999/xlink">
    <!-- Generator: sketchtool 64 (101010) - https://sketch.com -->
    <title>3C225A3C-93A6-431B-BE60-82BEFD40C885@3x</title>
    <desc>Created with sketchtool.</desc>
    <g id="Icons" stroke="none" stroke-width="1" fill="none" fill-rule="evenodd">
        <g transform="translate(-111.000000, -101.000000)" id="icon/brake">
            <g transform="translate(111.000000, 101.000000)">
                <rect id="Rectangle" stroke="#979797" fill="#D8D8D8" opacity="0" x="0" y="0" width="48" height="48"></rect>
                <path d="M22.3864746,0 C29.2283935,0 35.6605224,2.66455078 40.498169,7.50183103 C45.3354492,12.3394776 48,18.7716065 48,25.6135254 L48,25.6135254 L47.9963379,25.9332276 L47.9729004,27.4013672 L44.7026367,27.4013672 C44.2866211,32.7066651 42.0205078,37.638794 38.2163086,41.4429932 C33.9880371,45.6712646 28.3659668,48 22.3864746,48 C16.4073487,48 10.7849121,45.6712646 6.55700681,41.4429932 C2.32873537,37.2150879 0,31.5926513 0,25.6135254 C0,19.6340333 2.32873537,14.0119629 6.55700681,9.78369141 C10.4520263,5.88830569 15.5295411,3.60571294 20.9802246,3.26989744 L20.9802246,3.26989744 L20.9802246,0 Z M20.9802246,6.09008794 C10.8402099,6.81298828 2.8125,15.2926026 2.8125,25.6135254 C2.8125,36.4068604 11.5931396,45.1875 22.3864746,45.1875 C32.5770263,45.1875 40.9742432,37.359375 41.8791504,27.4013672 L41.8791504,27.4013672 L36.2380371,27.4013672 L36.2739258,25.9603271 C36.2764893,25.8449708 36.2775879,25.7296143 36.2775879,25.6135254 C36.2775879,17.9542237 30.0457763,11.7224121 22.3864746,11.7224121 L22.3864746,11.7224121 L20.9802246,11.7224121 Z M22.546875,39.2501221 C23.3668213,39.2501221 24.0311279,39.9144287 24.0311279,40.734375 C24.0311279,41.5543213 23.3668213,42.2186279 22.546875,42.2186279 C21.7269287,42.2186279 21.0626221,41.5543213 21.0626221,40.734375 C21.0626221,39.9144287 21.7269287,39.2501221 22.546875,39.2501221 Z M13.736206,38.0888672 C14.1430664,37.3769531 15.0498047,37.1297607 15.7613526,37.5362549 C16.4732666,37.942749 16.7208252,38.8494873 16.3139648,39.5614013 C15.9074708,40.2729492 15.0007324,40.5205078 14.2888183,40.1140136 C13.5772705,39.7071533 13.3297119,38.8007812 13.736206,38.0888672 Z M29.3496094,37.338501 C30.0593261,36.9283448 30.9671631,37.1711426 31.3773193,37.8808594 C31.7874756,38.5905761 31.5446777,39.4987793 30.8349609,39.9089355 C30.1252442,40.3190918 29.2174073,40.076294 28.807251,39.3665771 C28.3967286,38.6568604 28.6398926,37.7486573 29.3496094,37.338501 Z M22.3864746,14.8959961 C28.2963867,14.8959961 33.1040039,19.7036133 33.1040039,25.6135254 C33.1040039,31.5234375 28.2963867,36.3310547 22.3864746,36.3310547 C16.4765625,36.3310547 11.6689453,31.5234375 11.6689453,25.6135254 C11.6689453,19.7036133 16.4765625,14.8959961 22.3864746,14.8959961 Z M8.65795894,32.0848388 C9.36621094,31.6721192 10.2751464,31.9112549 10.6878662,32.6195068 C11.1009521,33.3277588 10.8614502,34.2366943 10.1531982,34.6494141 C9.44494631,35.0625 8.536377,34.822998 8.12329106,34.1147461 C7.71020512,33.4068604 7.94970703,32.4979248 8.65795894,32.0848388 Z M34.2817383,32.2855224 C34.6907959,31.5750732 35.5986328,31.3311768 36.3087158,31.7406006 C37.0191651,32.1500244 37.2630615,33.0574951 36.8536377,33.7675781 C36.4445801,34.4780273 35.5367432,34.7219239 34.8266602,34.3125 C34.1162109,33.9034424 33.8723145,32.9956055 34.2817383,32.2855224 Z M22.3864746,17.7084961 C18.0281982,17.7084961 14.4814453,21.2548828 14.4814453,25.6135254 C14.4814453,29.9718018 18.0281982,33.5185547 22.3864746,33.5185547 C26.7451172,33.5185547 30.2915039,29.9718018 30.2915039,25.6135254 C30.2915039,21.2548828 26.7451172,17.7084961 22.3864746,17.7084961 Z M22.3864746,20.4129638 C25.2542724,20.4129638 27.5870362,22.7457276 27.5870362,25.6135254 C27.5870362,28.4813232 25.2542724,30.8137208 22.3864746,30.8137208 C19.5186768,30.8137208 17.1862792,28.4813232 17.1862792,25.6135254 C17.1862792,22.7457276 19.5186768,20.4129638 22.3864746,20.4129638 Z M22.3864746,23.2254638 C21.0692138,23.2254638 19.9987792,24.2962646 19.9987792,25.6135254 C19.9987792,26.9307862 21.0692138,28.0012208 22.3864746,28.0012208 C23.7037354,28.0012208 24.7745362,26.9307862 24.7745362,25.6135254 C24.7745362,24.2962646 23.7037354,23.2254638 22.3864746,23.2254638 Z M7.260498,24.3471557 C8.08044431,24.3438721 8.7473145,25.0059815 8.75062007,25.8259277 C8.75354006,26.6455078 8.09179688,27.3127442 7.27185056,27.3156861 C6.45190425,27.3189698 5.78503416,26.6568604 5.7817286,25.8372803 C5.77880859,25.0173339 6.44091797,24.3500977 7.260498,24.3471557 Z M23.7927246,2.85571294 L23.7927246,8.96813962 C32.0108643,9.65625 38.5565185,16.3198242 39.0589599,24.5888672 L39.0589599,24.5888672 L45.1651612,24.5888672 C44.6473388,12.9572754 35.3745117,3.56359866 23.7927246,2.85571294 L23.7927246,2.85571294 Z M7.8984375,17.4990234 C8.30603025,16.7878418 9.21276853,16.5413818 9.92431641,16.9489746 C10.635498,17.3565674 10.881958,18.2636719 10.4743652,18.9748536 C10.0667724,19.6864013 9.15966797,19.9324951 8.44848638,19.5249023 C7.73730469,19.1173096 7.49084475,18.2105713 7.8984375,17.4990234 Z M13.902832,11.3371582 C14.6114502,10.9248047 15.5200195,11.1654052 15.9320068,11.8740234 C16.3439942,12.5830078 16.1033935,13.4915771 15.3947754,13.9035645 C14.6861573,14.3155518 13.7775879,14.0749511 13.3656006,13.366333 C12.9536133,12.6577148 13.1938477,11.7491455 13.902832,11.3371582 Z" id="Combined-Shape" fill="#818894"></path>
            </g>
        </g>
    </g>
</svg>