<?xml version="1.0" encoding="UTF-8"?>
<svg width="48px" height="40px" viewBox="0 0 48 40" version="1.1" xmlns="http://www.w3.org/2000/svg" xmlns:xlink="http://www.w3.org/1999/xlink">
    <!-- Generator: sketchtool 64 (101010) - https://sketch.com -->
    <title>48D8B0E9-3642-4710-B4C1-0192ED991D19@3x</title>
    <desc>Created with sketchtool.</desc>
    <g id="Icons" stroke="none" stroke-width="1" fill="none" fill-rule="evenodd">
        <g transform="translate(-238.000000, -105.000000)" id="icon/filter">
            <g transform="translate(238.000000, 101.000000)">
                <rect id="Rectangle" stroke="#979797" fill="#D8D8D8" opacity="0" x="0" y="0" width="48" height="48"></rect>
                <path d="M42.65625,4 L42.65625,5.60217287 L48,5.60217287 L48,17.6970214 L42.65625,17.6970214 L42.65625,19.28125 L39.84375,19.28125 L39.84375,17.6970214 L36.4698487,17.6970214 C37.2806396,19.798706 37.7248536,22.0816651 37.7248536,24.4656982 C37.7248536,34.8660888 29.2639161,43.328125 18.8624268,43.328125 C8.46203616,43.328125 0,34.8660888 0,24.4656982 C0,14.0642089 8.46203616,5.60217287 18.8624268,5.60217287 L18.8624268,5.60217287 L39.84375,5.60217287 L39.84375,4 L42.65625,4 Z M34.5,8.41467288 L18.8624268,8.41467288 C10.0125732,8.41467288 2.8125,15.6147461 2.8125,24.4656982 C2.8125,33.3155518 10.0125732,40.515625 18.8624268,40.515625 C27.7126464,40.515625 34.9123536,33.3155518 34.9123536,24.4656982 C34.9123536,22.048706 34.3754883,19.7547607 33.4145508,17.6970214 L33.4145508,17.6970214 L25.6369629,17.6970214 C27.3695068,19.4321289 28.4428711,21.8256836 28.4428711,24.4656982 C28.4428711,29.7475586 24.1453857,34.0457763 18.8624268,34.0457763 C13.5798339,34.0457763 9.28234866,29.7475586 9.28234866,24.4656982 C9.28234866,19.1827393 13.5798339,14.8845214 18.8624268,14.8845214 L18.8624268,14.8845214 L34.5,14.8845214 L34.5,8.41467288 Z M20.2686768,17.8442383 L20.2686768,20.8852539 L17.4561768,20.8852539 L17.4561768,17.8442383 C14.8509521,18.3972167 12.795044,20.453125 12.2416992,23.0594482 L12.2416992,23.0594482 L15.2823487,23.0594482 L15.2823487,25.8719482 L12.2416992,25.8719482 C12.795044,28.4771729 14.8509521,30.533081 17.4561768,31.0864258 L17.4561768,31.0864258 L17.4561768,28.0457763 L20.2686768,28.0457763 L20.2686768,31.0864258 C22.8739013,30.533081 24.9309083,28.4771729 25.4831542,25.8719482 L25.4831542,25.8719482 L22.4428711,25.8719482 L22.4428711,23.0594482 L25.4831542,23.0594482 C24.9309083,20.453125 22.8739013,18.3972167 20.2686768,17.8442383 L20.2686768,17.8442383 Z M18.8624268,23.0078125 C19.6677246,23.0078125 20.3203125,23.6604004 20.3203125,24.4656982 C20.3203125,25.2698974 19.6677246,25.9224854 18.8624268,25.9224854 C18.0582276,25.9224854 17.4045411,25.2698974 17.4045411,24.4656982 C17.4045411,23.6604004 18.0582276,23.0078125 18.8624268,23.0078125 Z M45.1875,8.41467287 L42.65625,8.41467287 L42.65625,14.8845214 L45.1875,14.8845214 L45.1875,8.41467287 Z M39.84375,8.41467287 L37.3125,8.41467287 L37.3125,14.8845214 L39.84375,14.8845214 L39.84375,8.41467287 Z" id="Combined-Shape" fill="#818894"></path>
            </g>
        </g>
    </g>
</svg>