<?xml version="1.0" encoding="UTF-8"?>
<svg width="39px" height="48px" viewBox="0 0 39 48" version="1.1" xmlns="http://www.w3.org/2000/svg" xmlns:xlink="http://www.w3.org/1999/xlink">
    <!-- Generator: sketchtool 64 (101010) - https://sketch.com -->
    <title>8EF13131-F9BF-4EE3-896A-667CAF8FB00C@3x</title>
    <desc>Created with sketchtool.</desc>
    <g id="Icons" stroke="none" stroke-width="1" fill="none" fill-rule="evenodd">
        <g transform="translate(-370.000000, -201.000000)" id="icon/gas">
            <g transform="translate(365.000000, 201.000000)">
                <g id="Group">
                    <rect id="Rectangle" fill="#F9F9F9" opacity="0" x="0" y="0" width="48" height="48"></rect>
                    <path d="M37.7915866,-1.70530257e-13 L37.7915866,7.4805288 L43.3538462,10.0352164 L43.3538462,30.9111779 C43.3538462,33.2080529 41.4849759,35.0769231 39.188101,35.0769231 C38.6984375,35.0769231 38.2282452,34.9911057 37.7915866,34.8353365 L37.7915866,34.8353365 L37.7915866,38.6769231 L39.4307692,38.6769231 L39.4307692,47.2615385 L5,47.2615385 L5,38.6769231 L6.63918265,38.6769231 L6.63918265,-1.70530257e-13 L37.7915866,-1.70530257e-13 Z M36.6615385,41.4461538 L7.76923077,41.4461538 L7.76923077,44.4923077 L36.6615385,44.4923077 L36.6615385,41.4461538 Z M35.0223558,21.9692308 L9.40841342,21.9692308 L9.40841342,38.6769231 L35.0223558,38.6769231 L35.0223558,21.9692308 Z M40.5846154,18 L37.7915866,18 L37.7915866,30.9111779 C37.7915866,31.6813702 38.4179087,32.3076923 39.188101,32.3076923 C39.9582933,32.3076923 40.5846154,31.6813702 40.5846154,30.9111779 L40.5846154,30.9111779 L40.5846154,18 Z M35.0223558,2.76923077 L9.40841342,2.76923077 L9.40841342,19.2 L35.0223558,19.2 L35.0223558,2.76923077 Z M32.7694712,5.13858175 L32.7694712,16.7076923 L11.6616587,16.7076923 L11.6616587,5.13858175 L32.7694712,5.13858175 Z M37.7915866,10.5277644 L37.7915866,15.2307692 L40.5846154,15.2307692 L40.5846154,11.8106971 L37.7915866,10.5277644 Z M30.0002404,7.90781252 L14.4308894,7.90781252 L14.4308894,13.9384615 L30.0002404,13.9384615 L30.0002404,7.90781252 Z" id="Combined-Shape" fill="#EF6454"></path>
                </g>
            </g>
        </g>
    </g>
</svg>