<?xml version="1.0" encoding="UTF-8"?>
<svg width="48px" height="48px" viewBox="0 0 48 48" version="1.1" xmlns="http://www.w3.org/2000/svg" xmlns:xlink="http://www.w3.org/1999/xlink">
    <!-- Generator: sketchtool 64 (101010) - https://sketch.com -->
    <title>FAB54969-32BA-4723-A17C-329CD6742604@3x</title>
    <desc>Created with sketchtool.</desc>
    <g id="Icons" stroke="none" stroke-width="1" fill="none" fill-rule="evenodd">
        <g transform="translate(-238.000000, -201.000000)" id="icon/lift">
            <g transform="translate(238.000000, 201.000000)">
                <rect id="Rectangle" stroke="#979797" fill="#D8D8D8" opacity="0" x="0" y="0" width="48" height="48"></rect>
                <path d="M35.3543701,0 L39.8089599,11.6553955 C41.5345459,12.4768067 42.7302246,14.2371826 42.7302246,16.2718506 L42.7302246,16.2718506 L42.7302246,25.9401855 L40.2037354,25.9401855 L40.2037354,26.7993164 C40.2037354,27.4281006 40.076294,28.0279541 39.8463135,28.5739746 L39.8463135,28.5739746 L48,28.5739746 L48,37.2319336 L38.9860839,37.2319336 L27.0362549,43.2407227 L36.5002442,48 L30.2402344,48 L23.90625,44.8146973 L17.5722656,48 L11.3118896,48 L20.7762451,43.2407227 L8.82641606,37.2319336 L0,37.2319336 L0,28.5739746 L7.9661865,28.5739746 C7.73620603,28.0279541 7.60876463,27.4281006 7.60876463,26.7993164 L7.60876463,26.7993164 L7.60876463,25.9401855 L5.08227544,25.9401855 L5.08227544,16.2718506 C5.08227544,14.2371826 6.27795412,12.4768067 8.00354006,11.6553955 L8.00354006,11.6553955 L12.4581299,0 L35.3543701,0 Z M32.725708,37.2315674 L15.086792,37.2315674 L23.90625,41.666748 L32.725708,37.2315674 Z M45.1875,31.3861084 L2.8125,31.3861084 L2.8125,34.4190674 L45.1875,34.4190674 L45.1875,31.3861084 Z M37.3912354,25.9401855 L33.8422852,25.9401855 L33.8422852,26.7993164 C33.8422852,27.777832 34.6384277,28.5739746 35.6165771,28.5739746 C36.5950927,28.5739746 37.3912354,27.777832 37.3912354,26.7993164 L37.3912354,26.7993164 L37.3912354,25.9401855 Z M31.0297852,25.9401855 L16.7827148,25.9401855 L16.7827148,26.7993164 C16.7827148,27.4281006 16.6552734,28.0279541 16.425293,28.5739746 L16.425293,28.5739746 L31.387207,28.5739746 C31.1572266,28.0279541 31.0297852,27.4281006 31.0297852,26.7993164 L31.0297852,26.7993164 L31.0297852,25.9401855 Z M13.9702148,25.9401855 L10.4212646,25.9401855 L10.4212646,26.7993164 C10.4212646,27.777832 11.2174072,28.5739746 12.1959229,28.5739746 C13.1740723,28.5739746 13.9702148,27.777832 13.9702148,26.7993164 L13.9702148,26.7993164 L13.9702148,25.9401855 Z M37.6201172,13.9746094 L10.1920166,13.9746094 C8.92529297,13.9746094 7.89477544,15.005127 7.89477544,16.2718506 L7.89477544,16.2718506 L7.89477544,23.1276855 L18.1501464,23.1276855 L18.1501464,17.2734375 L29.6623536,17.2734375 L29.6623536,23.1276855 L39.9177246,23.1276855 L39.9177246,16.2718506 C39.9177246,15.005127 38.887207,13.9746094 37.6201172,13.9746094 L37.6201172,13.9746094 Z M26.8498536,20.0859375 L20.9626464,20.0859375 L20.9626464,23.1276855 L26.8498536,23.1276855 L26.8498536,20.0859375 Z M12.9140625,16.734375 C13.9885254,16.734375 14.859375,17.6052246 14.859375,18.6796875 C14.859375,19.7541504 13.9885254,20.625 12.9140625,20.625 C11.8395996,20.625 10.96875,19.7541504 10.96875,18.6796875 C10.96875,17.6052246 11.8395996,16.734375 12.9140625,16.734375 Z M34.3813477,16.734375 C35.4558105,16.734375 36.3266602,17.6052246 36.3266602,18.6796875 C36.3266602,19.7541504 35.4558105,20.625 34.3813477,20.625 C33.3068848,20.625 32.4360352,19.7541504 32.4360352,18.6796875 C32.4360352,17.6052246 33.3068848,16.734375 34.3813477,16.734375 Z M33.4182129,2.8125 L14.3942871,2.8125 L11.203125,11.1621094 L36.6097412,11.1621094 L33.4182129,2.8125 Z" id="Combined-Shape" fill="#EF6454"></path>
            </g>
        </g>
    </g>
</svg>