<?xml version="1.0" encoding="UTF-8"?>
<svg width="48px" height="34px" viewBox="0 0 48 34" version="1.1" xmlns="http://www.w3.org/2000/svg" xmlns:xlink="http://www.w3.org/1999/xlink">
    <!-- Generator: sketchtool 64 (101010) - https://sketch.com -->
    <title>82305858-91D3-47C8-A2D8-9D2966B386A3@3x</title>
    <desc>Created with sketchtool.</desc>
    <g id="Icons" stroke="none" stroke-width="1" fill="none" fill-rule="evenodd">
        <g transform="translate(-619.000000, -208.000000)" id="icon/motor">
            <g transform="translate(619.000000, 201.000000)">
                <rect id="Rectangle" stroke="#979797" fill="#D8D8D8" opacity="0" x="0" y="0" width="48" height="48"></rect>
                <path d="M45.1875,26.2813721 L45.1875,28.6503906 L42.0252685,28.6503906 L42.0252685,26.9211426 L38.4536133,22.4940185 L35.8758545,22.4940185 L35.8758545,17.6311036 L27.6331787,17.6311036 L27.6331787,15.25 L31.6248779,15.25 L31.6248779,7 L14.0625,7 L14.0625,15.25 L18.0541992,15.25 L18.0541992,17.6311036 L12.4445801,17.6311036 L12.4445801,21.604126 L5.41992188,21.604126 L5.41992188,27.3734131 L2.8125,27.3734131 L2.8125,24.1741943 L0,24.1741943 L0,33.3851318 L2.8125,33.3851318 L2.8125,30.1859131 L5.41992188,30.1859131 L5.41992188,36.9663086 L13.5025635,36.9663086 L17.0328369,40.8635254 L42.0252685,40.8635254 L42.0252685,38.5842286 L45.1875,38.5842286 L45.1875,40.84375 L48,40.84375 L48,26.2813721 L45.1875,26.2813721 Z M33.0633545,20.4436036 L33.0633545,25.3065185 L37.1088867,25.3065185 L39.2127685,27.9143067 L39.2127685,38.0510254 L20.8666992,38.0510254 L20.8666992,20.4436036 L33.0633545,20.4436036 Z M16.875,12.4375 L16.875,9.8125 L28.8123779,9.8125 L28.8123779,12.4375 L16.875,12.4375 Z M20.8666992,15.25 L24.8206787,15.25 L24.8206787,17.6311036 L20.8666992,17.6311036 L20.8666992,15.25 Z M8.23242188,24.416626 L12.4445801,24.416626 L12.4445801,34.1538086 L8.23242188,34.1538086 L8.23242188,24.416626 Z M15.2570801,34.7137451 L15.2570801,20.4436036 L18.0541992,20.4436036 L18.0541992,37.802002 L15.2570801,34.7137451 Z M42.0252685,35.7717286 L42.0252685,31.4628906 L45.1875,31.4628906 L45.1875,35.7717286 L42.0252685,35.7717286 Z" id="Shape" fill="#EF6454"></path>
            </g>
        </g>
    </g>
</svg>