<?xml version="1.0" encoding="UTF-8"?>
<svg width="34px" height="48px" viewBox="0 0 34 48" version="1.1" xmlns="http://www.w3.org/2000/svg" xmlns:xlink="http://www.w3.org/1999/xlink">
    <!-- Generator: sketchtool 64 (101010) - https://sketch.com -->
    <title>30146603-DB1B-4774-BA46-70491A41724F@3x</title>
    <desc>Created with sketchtool.</desc>
    <g id="Icons" stroke="none" stroke-width="1" fill="none" fill-rule="evenodd">
        <g transform="translate(-118.000000, -201.000000)" id="icon/oil">
            <g transform="translate(111.000000, 201.000000)">
                <rect id="Rectangle" stroke="#979797" fill="#D8D8D8" opacity="0" x="0" y="0" width="48" height="48"></rect>
                <path d="M26.1217041,0 L26.1217041,7.40441897 L40.7613526,16.8112792 L40.7613526,48 L7,48 L7,17.2573242 L11.5560303,7.82116697 L11.5560303,0 L26.1217041,0 Z M24.291748,9.57165525 L13.8338623,9.57165525 L9.8125,17.9007568 L9.8125,45.1875 L37.9488526,45.1875 L37.9488526,18.347168 L24.291748,9.57165525 Z M34.8085938,21.75 L34.8085938,42.1875 L12.9527588,42.1875 L12.9527588,21.75 L34.8085938,21.75 Z M31.9960938,24.5625 L15.7652588,24.5625 L15.7652588,39.375 L31.9960938,39.375 L31.9960938,24.5625 Z M23.6889648,26.1229248 L24.7557373,27.3651123 C25.5211182,28.2561036 28.0175781,31.3172607 28.0175781,33.2980957 C28.0175781,35.6850586 26.0755615,37.6267089 23.6889648,37.6267089 C21.302002,37.6267089 19.3603516,35.6846924 19.3603516,33.2980957 C19.3603516,31.3172607 21.8568115,28.2561036 22.6221924,27.3651123 L22.6221924,27.3651123 L23.6889648,26.1229248 Z M23.689331,30.5511474 C22.8269043,31.7391357 22.1816406,32.8769531 22.1728516,33.2988281 C22.1728516,34.1341552 22.8529053,34.8142089 23.6889648,34.8142089 C24.5246583,34.8142089 25.2047119,34.1341552 25.2050781,33.2988281 C25.1959229,32.8747558 24.5513916,31.7376709 23.689331,30.5511474 Z M29.2982178,15.84375 L29.2982178,18.65625 L16.8294678,18.65625 L16.8294678,15.84375 L29.2982178,15.84375 Z M23.3092041,2.8125 L14.3685303,2.8125 L14.3685303,6.75915525 L23.3092041,6.75915525 L23.3092041,2.8125 Z" id="Combined-Shape" fill="#FFB94D"></path>
            </g>
        </g>
    </g>
</svg>