<?xml version="1.0" encoding="UTF-8"?>
<svg width="46px" height="37px" viewBox="0 0 46 37" version="1.1" xmlns="http://www.w3.org/2000/svg" xmlns:xlink="http://www.w3.org/1999/xlink">
    <!-- Generator: sketchtool 64 (101010) - https://sketch.com -->
    <title>6C0A221C-65F0-4D12-8A3B-96584A8A8653@3x</title>
    <desc>Created with sketchtool.</desc>
    <g id="Icons" stroke="none" stroke-width="1" fill="none" fill-rule="evenodd">
        <g transform="translate(-949.000000, -207.000000)" id="icon/speed">
            <g transform="translate(948.000000, 201.000000)">
                <g id="iocn/fuel">
                    <rect id="Rectangle" fill="#F9F9F9" opacity="0" x="0" y="0" width="48" height="48"></rect>
                    <path d="M24,6 C32.4363844,6.00130041 40.1952012,10.62055 44.2172679,18.0364494 C48.2393346,25.4523487 47.8792658,34.4749346 43.2790313,41.5467396 C42.9253146,42.0893072 42.3215073,42.4166667 41.6738229,42.4166667 L41.6738229,42.4166667 L6.3259375,42.4166667 C5.67825314,42.4166667 5.07444578,42.0893072 4.72072917,41.5467396 C0.120471195,34.4748986 -0.239576107,25.4522603 3.78254965,18.0363441 C7.8046754,10.6204279 15.5635726,6.00121256 24,6 Z M36.2437662,13.0188826 C29.0202582,7.48134729 18.9792626,7.48134729 11.7557546,13.0188826 C4.53224655,18.5564178 1.92455761,28.2528888 5.39611458,36.6666667 L5.39611458,36.6666667 L7.49007292,36.6666667 C6.64331565,34.8515712 6.10378569,32.9084861 5.89348958,30.9166667 L5.89348958,30.9166667 L8.66666667,30.9166667 L8.66666667,27.0833333 L5.89325,27.0833333 C6.09259306,25.1924588 6.58938221,23.3449433 7.36525,21.6090938 L7.36525,21.6090938 L9.76252083,22.9931667 L11.6791875,19.6735 L9.28622917,18.2918229 C10.406146,16.757427 11.757427,15.406146 13.2918229,14.2862292 L13.2918229,14.2862292 L14.6735,16.6791875 L17.9931667,14.7625208 L16.6090938,12.36525 C18.3449433,11.5893822 20.1924588,11.0925931 22.0833333,10.89325 L22.0833333,10.89325 L22.0833333,13.6666667 L25.9166667,13.6666667 L25.9166667,10.89325 C27.8079494,11.0924691 29.6558786,11.5892608 31.3921042,12.36525 L31.3921042,12.36525 L30.0080313,14.7625208 L33.3276979,16.6791875 L34.709375,14.2862292 C36.2433451,15.4062418 37.5942171,16.7575179 38.7137708,18.2918229 L38.7137708,18.2918229 L36.3208125,19.6735 L38.2374792,22.9931667 L40.63475,21.6090938 C41.4106178,23.3449433 41.9074069,25.1924588 42.10675,27.0833333 L42.10675,27.0833333 L39.3333333,27.0833333 L39.3333333,30.9166667 L42.1065104,30.9166667 C41.8962143,32.9084861 41.3566843,34.8515712 40.5099271,36.6666667 L40.5099271,36.6666667 L42.6034063,36.6666667 C46.0749632,28.2528888 43.4672743,18.5564178 36.2437662,13.0188826 Z M29.75,20.9579063 C29.75,20.9579063 20.6060625,25.2955625 19.0205,28.0416667 C17.4582808,30.7893615 18.406736,34.2828343 21.1440078,35.8632452 C23.8812795,37.4436562 27.3809668,36.5183949 28.9795,33.7916667 C30.5645833,31.0462813 29.75,20.9579063 29.75,20.9579063 Z M24,29 C25.0585458,29 25.9166667,29.8581209 25.9166667,30.9166667 C25.9166667,31.9752124 25.0585458,32.8333333 24,32.8333333 C22.9414542,32.8333333 22.0833333,31.9752124 22.0833333,30.9166667 C22.0833333,29.8581209 22.9414542,29 24,29 Z" id="Combined-Shape" fill="#818894"></path>
                </g>
            </g>
        </g>
    </g>
</svg>