<?xml version="1.0" encoding="UTF-8"?>
<svg width="48px" height="48px" viewBox="0 0 48 48" version="1.1" xmlns="http://www.w3.org/2000/svg" xmlns:xlink="http://www.w3.org/1999/xlink">
    <!-- Generator: sketchtool 64 (101010) - https://sketch.com -->
    <title>258227AD-B279-4B59-BC3E-DFD643EDB74C@3x</title>
    <desc>Created with sketchtool.</desc>
    <g id="Icons" stroke="none" stroke-width="1" fill="none" fill-rule="evenodd">
        <g transform="translate(-619.000000, -101.000000)" id="icon/speed">
            <g transform="translate(619.000000, 101.000000)">
                <g id="Group">
                    <rect id="Rectangle" stroke="#979797" fill="#D8D8D8" opacity="0" x="0" y="0" width="48" height="48"></rect>
                    <path d="M24,0 C30.4105224,0 36.4376221,2.49645994 40.970581,7.02941897 C45.5035401,11.5623779 48,17.5894776 48,24 C48,30.4105224 45.5035401,36.4376221 40.970581,40.970581 C36.4376221,45.5035401 30.4105224,48 24,48 C17.5894776,48 11.5623779,45.5035401 7.02941897,40.970581 C2.49645994,36.4376221 -3.55271368e-15,30.4105224 -3.55271368e-15,24 C-3.55271368e-15,17.5894776 2.49645994,11.5623779 7.02941897,7.02941897 C11.5623779,2.49645994 17.5894776,0 24,0 Z M24,2.8125 C12.3171386,2.8125 2.8125,12.3171386 2.8125,24 C2.8125,35.6828614 12.3171386,45.1875 24,45.1875 C35.6828614,45.1875 45.1875,35.6828614 45.1875,24 C45.1875,12.3171386 35.6828614,2.8125 24,2.8125 Z M24,5.59863281 C34.1466065,5.59863281 42.4013672,13.8533935 42.4013672,24 C42.4013672,34.1466065 34.1466065,42.4013672 24,42.4013672 C13.8533935,42.4013672 5.59863281,34.1466065 5.59863281,24 C5.59863281,13.8533935 13.8533935,5.59863281 24,5.59863281 Z M25.40625,8.47521975 L25.40625,11.7810058 L22.59375,11.7810058 L22.59375,8.47521975 C19.3498536,8.76672366 16.3890381,10.0557862 14.0218506,12.0329589 L14.0218506,12.0329589 L16.3546143,14.3657227 L14.3657227,16.354248 L12.0329589,14.0214844 C10.0557862,16.3890381 8.76672366,19.3498536 8.47521975,22.59375 L8.47521975,22.59375 L11.7813721,22.59375 L11.7813721,25.40625 L8.47521975,25.40625 C9.18859866,33.3453369 15.8781739,39.5888672 24,39.5888672 C32.1218261,39.5888672 38.8114013,33.3453369 39.5247803,25.40625 L39.5247803,25.40625 L36.2186279,25.40625 L36.2186279,22.59375 L39.5247803,22.59375 C39.2332763,19.3498536 37.9442138,16.3890381 35.9670411,14.0214844 L35.9670411,14.0214844 L33.6342773,16.354248 L31.6453857,14.3657227 L33.9781494,12.0329589 C31.6109619,10.0557862 28.6501464,8.76672366 25.40625,8.47521975 L25.40625,8.47521975 Z M27.7811279,32.6876221 L27.7811279,35.5001221 L20.2188721,35.5001221 L20.2188721,32.6876221 L27.7811279,32.6876221 Z M25.40625,15.5625 L25.40625,20.1386719 C26.9816895,20.7139893 28.1092529,22.2279052 28.1092529,24 C28.1092529,25.7720947 26.9816895,27.2860107 25.40625,27.8613281 L25.40625,27.8613281 L25.40625,29.7810058 L22.59375,29.7810058 L22.59375,27.8613281 C21.0183105,27.2860107 19.8907471,25.7720947 19.8907471,24 C19.8907471,22.2279052 21.0183105,20.7139893 22.59375,20.1386719 L22.59375,20.1386719 L22.59375,15.5625 L25.40625,15.5625 Z M24,22.7032471 C23.2847901,22.7032471 22.7032471,23.2847901 22.7032471,24 C22.7032471,24.7152099 23.2847901,25.2967529 24,25.2967529 C24.7152099,25.2967529 25.2967529,24.7152099 25.2967529,24 C25.2967529,23.2847901 24.7152099,22.7032471 24,22.7032471 Z" id="Combined-Shape" fill="#818894"></path>
                </g>
            </g>
        </g>
    </g>
</svg>