<?xml version="1.0" encoding="UTF-8"?>
<svg width="48px" height="48px" viewBox="0 0 48 48" version="1.1" xmlns="http://www.w3.org/2000/svg" xmlns:xlink="http://www.w3.org/1999/xlink">
    <!-- Generator: sketchtool 64 (101010) - https://sketch.com -->
    <title>30F765EE-9F00-43D2-83D5-5CBAC60110F6@3x</title>
    <desc>Created with sketchtool.</desc>
    <g id="Icons" stroke="none" stroke-width="1" fill="none" fill-rule="evenodd">
        <g transform="translate(-746.000000, -201.000000)" id="icon/tire">
            <g transform="translate(746.000000, 201.000000)">
                <g id="Group">
                    <rect id="Rectangle" stroke="#979797" fill="#D8D8D8" opacity="0" x="0" y="0" width="48" height="48"></rect>
                    <path d="M24,0 C30.4105224,0 36.4376221,2.49645994 40.970581,7.02941897 C45.5035401,11.5623779 48,17.5894776 48,24 C48,30.4105224 45.5035401,36.4376221 40.970581,40.970581 C36.4376221,45.5035401 30.4105224,48 24,48 C17.5894776,48 11.5623779,45.5035401 7.02941897,40.970581 C2.49645994,36.4376221 -3.55271368e-15,30.4105224 -3.55271368e-15,24 C-3.55271368e-15,17.5894776 2.49645994,11.5623779 7.02941897,7.02941897 C11.5623779,2.49645994 17.5894776,0 24,0 Z M25.40625,2.86047366 L25.40625,5.49975581 L22.59375,5.49975581 L22.59375,2.86047366 C17.8029786,3.17578125 13.4425049,5.08996584 10.0418701,8.07385256 L10.0418701,8.07385256 L11.8981933,9.93017578 L9.90930178,11.9190674 L8.05444331,10.0642089 C5.07714844,13.4663086 3.16955569,17.8260498 2.85900881,22.614624 L2.85900881,22.614624 L5.47888181,22.614624 L5.47888181,25.427124 L2.86157231,25.427124 C3.18127444,30.2094727 5.09436037,34.5622558 8.07385256,37.9581299 L8.07385256,37.9581299 L9.90930178,36.1226807 L11.8978271,38.111206 L10.0638427,39.9455567 C13.4615479,42.918457 17.8135987,44.8249511 22.59375,45.1395263 L22.59375,45.1395263 L22.59375,42.541626 L25.40625,42.541626 L25.40625,45.1395263 C30.1864013,44.8249511 34.5384521,42.918457 37.9357911,39.9455567 L37.9357911,39.9455567 L36.1018067,38.111206 L38.0906982,36.1226807 L39.9257812,37.9581299 C42.9056396,34.5622558 44.8187256,30.2094727 45.1384277,25.427124 L45.1384277,25.427124 L42.520752,25.427124 L42.520752,22.614624 L45.1409912,22.614624 C44.8304443,17.8260498 42.9228516,13.4663086 39.9455567,10.0642089 L39.9455567,10.0642089 L38.0906982,11.9190674 L36.1018067,9.93017578 L37.9581299,8.07421875 C34.5574951,5.08996584 30.1970214,3.17578125 25.40625,2.86047366 L25.40625,2.86047366 Z M24,8.0625 C32.7879638,8.0625 39.9375,15.2120362 39.9375,24 C39.9375,32.7879638 32.7879638,39.9375 24,39.9375 C15.2120362,39.9375 8.0625,32.7879638 8.0625,24 C8.0625,15.2120362 15.2120362,8.0625 24,8.0625 Z M23.5444336,32.7652588 L21.3442383,36.8547364 C22.2022705,37.0319824 23.090332,37.125 24,37.125 C25.0089112,37.125 25.9914551,37.010376 26.9355469,36.7939453 L26.9355469,36.7939453 L24.6606445,32.7663574 L23.5444336,32.7652588 Z M29.3660888,12.0230713 L26.1309815,18.046875 L21.6928711,18.046875 L18.3570557,12.1516114 C17.6422119,12.4932862 16.9628906,12.8983154 16.3264161,13.3586426 L16.3264161,13.3586426 L19.9160156,19.1729737 L17.6920166,23.013794 L10.9174805,22.9464112 C10.8896484,23.2943115 10.875,23.6455078 10.875,24 C10.875,24.4482422 10.8977051,24.8913574 10.9420166,25.3282471 L10.9420166,25.3282471 L17.7780761,25.125 L19.9929199,28.970581 L16.5516357,34.8006592 C17.2027588,35.2510987 17.8959961,35.6447754 18.6247558,35.9732666 L18.6247558,35.9732666 L21.864624,29.9516602 L26.3027344,29.954956 L29.6341552,35.8527833 C30.3552246,35.5085449 31.0400391,35.1002198 31.6816406,34.635498 L31.6816406,34.635498 L28.0876464,28.8240967 L30.3087158,24.9818115 L37.0836182,25.0437011 C37.1107177,24.6994629 37.125,24.3511963 37.125,24 C37.125,23.5484619 37.1019287,23.1020508 37.057251,22.6618652 L37.057251,22.6618652 L30.2211914,22.8702393 L28.0030518,19.0264893 L31.4403076,13.1938477 C30.7888183,12.7437744 30.0952148,12.3508301 29.3660888,12.0230713 L29.3660888,12.0230713 Z M16.1802979,27.986206 L11.5396729,28.1242676 C12.1391602,29.9311523 13.1217041,31.5648193 14.3902588,32.9293213 L14.3902588,32.9293213 L16.7373047,28.9533692 L16.1802979,27.986206 Z M31.9229737,27.8089599 L31.364502,28.7753906 L33.8023682,32.7176513 C35.0401612,31.3275146 35.9875489,29.673706 36.5482178,27.8514404 L36.5482178,27.8514404 L31.9229737,27.8089599 Z M24,19.59375 C26.4294433,19.59375 28.40625,21.5705567 28.40625,24 C28.40625,26.4294433 26.4294433,28.40625 24,28.40625 C21.5705567,28.40625 19.59375,26.4294433 19.59375,24 C19.59375,21.5705567 21.5705567,19.59375 24,19.59375 Z M24,22.40625 C23.1210937,22.40625 22.40625,23.1210938 22.40625,24 C22.40625,24.8789062 23.1210937,25.59375 24,25.59375 C24.8789062,25.59375 25.59375,24.8789062 25.59375,24 C25.59375,23.1210938 24.8789062,22.40625 24,22.40625 Z M14.2042237,15.2750244 C12.965332,16.6644287 12.0164795,18.3175049 11.4547119,20.1394043 L11.4547119,20.1394043 L16.079956,20.1851807 L16.6391602,19.2194824 Z M33.6031494,15.0633545 L31.2590333,19.0411377 L31.8167724,20.0079346 L36.4573974,19.8665771 C35.8564453,18.0600586 34.8728027,16.4267578 33.6031494,15.0633545 L33.6031494,15.0633545 Z M24,10.875 C22.987793,10.875 22.0019531,10.9903565 21.0549317,11.208252 L21.0549317,11.208252 L23.3331299,15.234375 L24.4489746,15.234375 L26.6462402,11.1430664 C25.7911377,10.9672852 24.9060058,10.875 24,10.875 Z" id="Combined-Shape" fill="#818894"></path>
                </g>
            </g>
        </g>
    </g>
</svg>